<svg xmlns="http://www.w3.org/2000/svg" width="19.792" height="7.950" viewBox="0 0 19.792 7.950" fill="none">
  <path d="M 1.929 -0.424 C 1.695 -1.489 0.642 -2.163 -0.424 -1.929 C -1.489 -1.695 -2.163 -0.642 -1.929 0.424 L 0 0 L 1.929 -0.424 Z M 21.721 0.424 C 21.955 -0.642 21.281 -1.695 20.215 -1.929 C 19.15 -2.163 18.097 -1.489 17.863 -0.424 L 19.792 0 L 21.721 0.424 Z M 0 0 L -1.929 0.424 C -0.736 5.857 4.102 9.925 9.896 9.925 L 9.896 7.95 L 9.896 5.975 C 5.997 5.975 2.733 3.237 1.929 -0.424 L 0 0 Z M 9.896 7.95 L 9.896 9.925 C 15.69 9.925 20.528 5.856 21.721 0.424 L 19.792 0 L 17.863 -0.424 C 17.059 3.237 13.795 5.975 9.896 5.975 L 9.896 7.95 Z" fill="currentColor" fill-rule="nonzero"></path>
</svg>