<svg xmlns="http://www.w3.org/2000/svg" width="13.419" height="13.402" viewBox="0 0 13.419 13.402" fill="none">
  <path d="M 12.928 9.62 L 11.499 8.191 C 11.347 8.036 11.166 7.912 10.965 7.828 C 10.765 7.744 10.55 7.701 10.333 7.701 C 10.115 7.701 9.9 7.744 9.7 7.828 C 9.499 7.912 9.318 8.036 9.166 8.191 L 8.88 8.477 C 7.44 7.275 6.111 5.948 4.908 4.51 L 5.199 4.218 C 5.508 3.909 5.682 3.489 5.682 3.052 C 5.682 2.614 5.508 2.195 5.199 1.885 L 3.788 0.473 C 3.475 0.17 3.057 0 2.621 0 C 2.185 0 1.767 0.17 1.454 0.473 L 0.673 1.255 C 0.298 1.635 0.065 2.131 0.012 2.662 C -0.041 3.193 0.089 3.725 0.381 4.172 C 2.712 7.681 5.721 10.69 9.23 13.021 C 9.676 13.313 10.209 13.443 10.74 13.39 C 11.271 13.337 11.767 13.104 12.147 12.729 L 12.928 11.953 C 13.084 11.801 13.207 11.62 13.291 11.42 C 13.375 11.219 13.419 11.004 13.419 10.787 C 13.419 10.569 13.375 10.354 13.291 10.154 C 13.207 9.954 13.084 9.772 12.928 9.62 Z" fill="currentColor" fill-rule="nonzero"></path>
</svg>